<svg width="100" height="100" viewBox="0 0 100 100" fill="none" xmlns="http://www.w3.org/2000/svg">
<mask id="mask0_332_83" style="mask-type:alpha" maskUnits="userSpaceOnUse" x="6" y="0" width="88" height="100">
<path d="M50 0L71.75 12.3279L93.3013 25L93.5 50L93.3013 75L71.75 87.6721L50 100L28.25 87.6721L6.69873 75L6.5 50L6.69873 25L28.25 12.3279L50 0Z" fill="#FDAF75"/>
</mask>
<g mask="url(#mask0_332_83)">
<path d="M31.4023 80.3418C31.0508 83.8574 29.1172 85.7617 25.6016 86.0547C23.9609 86.0547 22.5254 85.5273 21.2949 84.4727C20.123 83.3594 19.5371 81.9824 19.5371 80.3418V38.6816C19.5957 37.041 20.2109 35.6934 21.3828 34.6387C22.5547 33.5254 23.9609 32.9688 25.6016 32.9688H29.9082H40.7188H62.4277C62.7793 32.9688 63.1309 32.998 63.4824 33.0566H64.0098C68.1113 33.1738 71.4805 34.1113 74.1172 35.8691C76.7539 37.627 78.6582 39.6484 79.8301 41.9336C81.002 44.1602 81.5879 46.416 81.5879 48.7012C81.5879 51.0449 81.002 53.3594 79.8301 55.6445C78.7168 57.8711 76.8125 59.8633 74.1172 61.6211C71.4805 63.3789 68.1113 64.3164 64.0098 64.4336H48.541C49.0098 67.3633 49.9766 69.5312 51.4414 70.9375C52.8477 72.3438 54.6348 73.0469 56.8027 73.0469H75.7871C77.4277 73.1055 78.7754 73.7207 79.8301 74.8926C80.9434 76.0645 81.5 77.4707 81.5 79.1113C81.4414 80.6934 80.8555 82.041 79.7422 83.1543C78.6875 84.209 77.3691 84.7656 75.7871 84.8242H55.2207C50.8848 84.8828 46.959 83.1836 43.4434 79.7266C39.9277 76.2695 37.7891 72.168 37.0273 67.4219C35.9727 62.1484 35.4453 59.1895 35.4453 58.5449C35.4453 56.9043 36.002 55.5273 37.1152 54.4141C38.2871 53.2422 39.6934 52.6562 41.334 52.6562H64.5371C65.6504 52.5977 66.5586 52.3633 67.2617 51.9531C68.0234 51.4844 68.5801 50.9863 68.9316 50.459C69.2832 49.873 69.459 49.2871 69.459 48.7012C69.459 48.1152 69.2832 47.5586 68.9316 47.0312C68.5801 46.4453 68.0234 45.9473 67.2617 45.5371C66.5586 45.0684 65.6504 44.8047 64.5371 44.7461H40.7188H33.6875C32.1641 44.8047 31.4023 45.5664 31.4023 47.0312V80.3418Z" fill="#FF5722"/>
<path d="M30.75 16.6582L50 5.74731L69.2499 16.6582L88.324 27.8737L88.4998 50L88.324 72.1263L69.2498 83.3419L50 94.2527L30.7502 83.3419L11.676 72.1263L11.5002 50L11.676 27.8737L30.75 16.6582Z" stroke="#FF5722" stroke-width="10"/>
</g>
</svg>
